<svg xmlns="http://www.w3.org/2000/svg" width="1280" height="720" viewBox="0 0 1280 720" role="img" aria-label="AR maintenance interface mockup">
  <rect width="1280" height="720" fill="#050505"/>
  <rect x="414" y="70" width="452" height="580" rx="44" fill="#0f0f0f" stroke="#3f3f3f" stroke-width="6"/>
  <rect x="444" y="122" width="392" height="476" rx="18" fill="#151515"/>
  <path d="M480 418h318M480 458h240M480 498h290" stroke="#3f3f3f" stroke-width="10" stroke-linecap="round"/>
  <rect x="503" y="174" width="274" height="174" rx="18" fill="#050505" stroke="#2dd4bf" stroke-width="3"/>
  <path d="M548 264h184M640 207v114" stroke="#84cc16" stroke-width="6" stroke-linecap="round"/>
  <circle cx="640" cy="264" r="72" fill="none" stroke="#2dd4bf" stroke-width="4" stroke-dasharray="12 16"/>
  <rect x="520" y="526" width="240" height="38" rx="8" fill="#2dd4bf" opacity=".9"/>
  <text x="560" y="552" fill="#050505" font-family="Arial, Helvetica, sans-serif" font-size="20" font-weight="700">Step anchored</text>
  <g opacity=".3" stroke="#2dd4bf">
    <path d="M0 180h360M920 180h360M0 540h360M920 540h360"/>
    <path d="M180 0v720M1100 0v720"/>
  </g>
</svg>
